<svg width="1512" height="1028" viewBox="0 0 1512 1028" fill="none" xmlns="http://www.w3.org/2000/svg">
<path d="M599 90.9062L699.588 23.3325L746.011 26.8775L835 304.289L726.67 400.333L599 90.9062Z" fill="#FF93C8"/>
<path d="M1396 250.833L1183.5 342.333L1107 559.833L1165 845.833L1513 1027.33V387.333L1396 250.833Z" fill="#00672E"/>
<path d="M23.3829 566.595L290.124 20.6046L648.796 0L725 293.6L464.425 663.346L228.601 873.487L-1 873.195L-0.943427 693.928L23.3829 566.595Z" fill="#FFE800"/>
<path d="M218 547.833L197.5 729.333L357.5 897.333L780.5 927.333L919 727.833L715.5 509.333L218 547.833Z" fill="#E31C24"/>
<path d="M493.836 687.333L311 372.715L395.721 147.333L634.325 207.592L835 495.431L730.189 678.406L493.836 687.333Z" fill="#00672E"/>
<path d="M621 467.881L921.437 728.333H1140.9L1325 368.251L1258.67 69.3325L1000.64 76.7178L893.754 102.552L621 467.881Z" fill="#0F2CCE"/>
</svg>
